{
  "source": "C:\\Users\\Peter\\Desktop\\stuff\\MIUN\\quantitative_research\\video_compression\\videos\\BVI-HD\\Music_1920x1080_30fps.mp4",
  "output": "C:\\Users\\Peter\\Desktop\\stuff\\MIUN\\quantitative_research\\video_compression\\compressed_videos\\BVI-HD\\av1\\12\\Music_1920x1080_30fps_av1.mkv",
  "codec": "av1",
  "ok": "Input #0, mov,mp4,m4a,3gp,3g2,mj2, from 'C:\\Users\\Peter\\Desktop\\stuff\\MIUN\\quantitative_research\\video_compression\\videos\\BVI-HD\\Music_1920x1080_30fps.mp4':\n  Metadata:\n    major_brand     : isom\n    minor_version   : 512\n    compatible_brands: isomiso2avc1mp41\n    encoder         : Lavf54.28.101\n  Duration: 00:00:05.00, start: 0.000000, bitrate: 192710 kb/s\n  Stream #0:0[0x1](und): Video: h264 (High 4:4:4 Predictive) (avc1 / 0x31637661), yuv420p(progressive), 1920x1080, 192707 kb/s, 30 fps, 30 tbr, 30 tbn (default)\n    Metadata:\n      handler_name    : VideoHandler\n      vendor_id       : [0][0][0][0]\n[out#0/matroska @ 000001a89736ddc0] Codec AVOption b:a (set bitrate (in bits/s)) has not been used for any stream. The most likely reason is either wrong type (e.g. a video option with no video streams) or that it is a private option of some decoder which was not actually used for any stream.\nStream mapping:\n  Stream #0:0 -> #0:0 (h264 (native) -> av1 (libsvtav1))\nPress [q] to stop, [?] for help\nSvt[info]: -------------------------------------------\nSvt[info]: SVT [version]:\tSVT-AV1 Encoder Lib v3.1.0-19-g6ecfe8ec\nSvt[info]: SVT [build]  :\tGCC 15.2.0\t 64 bit\nSvt[info]: LIB Build date: Aug 17 2025 11:37:13\nSvt[info]: -------------------------------------------\nSvt[info]: Level of Parallelism: 5\nSvt[info]: Number of PPCS 93\nSvt[info]: [asm level on system : up to avx2]\nSvt[info]: [asm level selected : up to avx2]\nSvt[info]: -------------------------------------------\nSvt[info]: SVT [config]: main profile\ttier (auto)\tlevel (auto)\nSvt[info]: SVT [config]: width / height / fps numerator / fps denominator \t\t: 1920 / 1080 / 30 / 1\nSvt[info]: SVT [config]: bit-depth / color format \t\t\t\t\t: 8 / YUV420\nSvt[info]: SVT [config]: preset / tune / pred struct \t\t\t\t\t: 4 / PSNR / random access\nSvt[info]: SVT [config]: gop size / mini-gop size / key-frame type \t\t\t: 161 / 16 / key frame\nSvt[info]: SVT [config]: BRC mode / target bitrate (kbps)\t\t\t\t: VBR / 12000 \nSvt[info]: SVT [config]: AQ mode / Variance Boost \t\t\t\t\t: 2 / 0\nSvt[info]: SVT [config]: sharpness / luminance-based QP bias \t\t\t\t: 0 / 0\nSvt[info]: SVT [config]: QP scale compress strength \t\t\t\t\t: 0\nSvt[info]: -------------------------------------------\nOutput #0, matroska, to 'C:\\Users\\Peter\\Desktop\\stuff\\MIUN\\quantitative_research\\video_compression\\compressed_videos\\BVI-HD\\av1\\12\\Music_1920x1080_30fps_av1.mkv':\n  Metadata:\n    major_brand     : isom\n    minor_version   : 512\n    compatible_brands: isomiso2avc1mp41\n    encoder         : Lavf62.3.100\n  Stream #0:0(und): Video: av1 (AV01 / 0x31305641), yuv420p(tv, progressive), 1920x1080, q=2-31, 12000 kb/s, 30 fps, 1k tbn (default)\n    Metadata:\n      encoder         : Lavc62.11.100 libsvtav1\n      handler_name    : VideoHandler\n      vendor_id       : [0][0][0][0]\n    Side data:\n      cpb: bitrate max/min/avg: 0/0/12000000 buffer size: 12000000 vbv_delay: N/A\nframe=    0 fps=0.0 q=0.0 size=       0KiB time=N/A bitrate=N/A speed=N/A elapsed=0:00:01.04    \nframe=    0 fps=0.0 q=0.0 size=       0KiB time=N/A bitrate=N/A speed=N/A elapsed=0:00:01.56    \nframe=    0 fps=0.0 q=0.0 size=       0KiB time=N/A bitrate=N/A speed=N/A elapsed=0:00:02.18    \nframe=    0 fps=0.0 q=0.0 size=       0KiB time=N/A bitrate=N/A speed=N/A elapsed=0:00:02.72    \nframe=    1 fps=0.3 q=9.0 size=       1KiB time=00:00:00.00 bitrate=N/A speed=   0x elapsed=0:00:03.24    \nframe=    3 fps=0.8 q=14.0 size=       1KiB time=00:00:00.06 bitrate=  85.6kbits/s speed=0.0177x elapsed=0:00:03.76    \nframe=    7 fps=1.6 q=14.0 size=       1KiB time=00:00:00.16 bitrate=  34.2kbits/s speed=0.0387x elapsed=0:00:04.30    \nframe=   10 fps=2.1 q=13.0 size=       1KiB time=00:00:00.30 bitrate=  19.0kbits/s speed=0.0615x elapsed=0:00:04.87    \nframe=   14 fps=2.6 q=13.0 size=       1KiB time=00:00:00.43 bitrate=  13.2kbits/s speed=0.0797x elapsed=0:00:05.43    \nframe=   19 fps=3.2 q=10.0 size=       1KiB time=00:00:00.60 bitrate=   9.5kbits/s speed= 0.1x elapsed=0:00:05.98    \nframe=   23 fps=3.5 q=10.0 size=       1KiB time=00:00:00.73 bitrate=   7.8kbits/s speed=0.113x elapsed=0:00:06.50    \nframe=   25 fps=3.6 q=10.0 size=       1KiB time=00:00:00.80 bitrate=   7.1kbits/s speed=0.114x elapsed=0:00:07.02    \nframe=   29 fps=3.8 q=10.0 size=       1KiB time=00:00:00.93 bitrate=   6.1kbits/s speed=0.124x elapsed=0:00:07.54    \nframe=   34 fps=4.2 q=13.0 size=       1KiB time=00:00:01.10 bitrate=   5.2kbits/s speed=0.136x elapsed=0:00:08.07    \nframe=   38 fps=4.4 q=14.0 size=       1KiB time=00:00:01.23 bitrate=   4.6kbits/s speed=0.144x elapsed=0:00:08.59    \nframe=   39 fps=4.3 q=10.0 size=       1KiB time=00:00:01.26 bitrate=   4.5kbits/s speed=0.139x elapsed=0:00:09.11    \nframe=   43 fps=4.5 q=11.0 size=       1KiB time=00:00:01.40 bitrate=   4.1kbits/s speed=0.145x elapsed=0:00:09.63    \nframe=   50 fps=4.9 q=15.0 size=       1KiB time=00:00:01.63 bitrate=   3.5kbits/s speed=0.161x elapsed=0:00:10.15    \nframe=   55 fps=5.2 q=11.0 size=       1KiB time=00:00:01.80 bitrate=   3.2kbits/s speed=0.169x elapsed=0:00:10.66    \nframe=   57 fps=5.1 q=7.0 size=       1KiB time=00:00:01.86 bitrate=   3.1kbits/s speed=0.167x elapsed=0:00:11.18    \nframe=   63 fps=5.4 q=13.0 size=       1KiB time=00:00:02.06 bitrate=   2.8kbits/s speed=0.176x elapsed=0:00:11.72    \nframe=   69 fps=5.6 q=12.0 size=       1KiB time=00:00:02.26 bitrate=   2.5kbits/s speed=0.185x elapsed=0:00:12.23    \nframe=   73 fps=5.7 q=9.0 size=       1KiB time=00:00:02.40 bitrate=   2.4kbits/s speed=0.188x elapsed=0:00:12.74    \nframe=   77 fps=5.8 q=12.0 size=       1KiB time=00:00:02.53 bitrate=   2.3kbits/s speed=0.191x elapsed=0:00:13.27    \nframe=   85 fps=6.2 q=13.0 size=       1KiB time=00:00:02.80 bitrate=   2.0kbits/s speed=0.203x elapsed=0:00:13.79    \nframe=   89 fps=6.2 q=12.0 size=       1KiB time=00:00:02.93 bitrate=   1.9kbits/s speed=0.205x elapsed=0:00:14.31    \nframe=   93 fps=6.3 q=13.0 size=    5120KiB time=00:00:03.06 bitrate=13677.1kbits/s speed=0.207x elapsed=0:00:14.82    \nframe=   99 fps=6.5 q=15.0 size=    5120KiB time=00:00:03.26 bitrate=12839.7kbits/s speed=0.213x elapsed=0:00:15.34    \nframe=  103 fps=6.5 q=15.0 size=    5120KiB time=00:00:03.40 bitrate=12336.2kbits/s speed=0.214x elapsed=0:00:15.86    \nframe=  107 fps=6.5 q=15.0 size=    5120KiB time=00:00:03.53 bitrate=11870.7kbits/s speed=0.216x elapsed=0:00:16.37    \nframe=  111 fps=6.6 q=15.0 size=    5120KiB time=00:00:03.66 bitrate=11439.0kbits/s speed=0.217x elapsed=0:00:16.89    \nframe=  117 fps=6.7 q=14.0 size=    5120KiB time=00:00:03.86 bitrate=10847.3kbits/s speed=0.222x elapsed=0:00:17.41    \nframe=  121 fps=6.7 q=13.0 size=    5120KiB time=00:00:04.00 bitrate=10485.8kbits/s speed=0.223x elapsed=0:00:17.93    \nframe=  125 fps=6.8 q=15.0 size=    5120KiB time=00:00:04.13 bitrate=10147.5kbits/s speed=0.224x elapsed=0:00:18.46    \nframe=  133 fps=7.0 q=17.0 size=    5120KiB time=00:00:04.40 bitrate=9532.5kbits/s speed=0.232x elapsed=0:00:18.99    \nframe=  137 fps=7.0 q=15.0 size=    5120KiB time=00:00:04.53 bitrate=9252.1kbits/s speed=0.232x elapsed=0:00:19.51    \nframe=  141 fps=7.0 q=17.0 size=    5120KiB time=00:00:04.66 bitrate=8987.8kbits/s speed=0.233x elapsed=0:00:20.03    \n[out#0/matroska @ 000001a89736ddc0] video:7155KiB audio:0KiB subtitle:0KiB other streams:0KiB global headers:0KiB muxing overhead: 0.020828%\nframe=  150 fps=7.4 q=17.0 Lsize=    7157KiB time=00:00:04.96 bitrate=11804.0kbits/s speed=0.246x elapsed=0:00:20.20    \n",
  "seconds": 20.706878662109375,
  "probe_out": {}
}